# xmcd CD database file
# Copyright (C) 1996 Ti Kan
#
# Track frame offsets:
#  150
#  26222
#  42307
#  57407
#  74605
#  84535
#  91615
#  110552
#  125962
#  140467
#  159452
#  166345
#  180040
#  197865
#  214017
#  219170
#  227685
#  249500
#
# Disc length: 3479 seconds
#
# Revision: 1
# Processed by: cddbd v1.4b41PL1 Copyright (c) Steve Scherf et al.
# Submitted via: CDWizzard Release:4.13
#
DISCID=fd0d9512
DTITLE=Nitty Gritty Dirt Band - Dirt, Silver and Gold [CD2]
DYEAR=1900
DGENRE=
TTITLE0=Ripplin' Waters
TTITLE1=You Are My Flower
TTITLE2=Battle of New Orleans
TTITLE3=All I Have To Do Is Dream
TTITLE4=Rocky Top
TTITLE5=Gavotte No. 2
TTITLE6=Jamaica Lady
TTITLE7=Mother Earth (Provides For Me)
TTITLE8=Falling Down Slow
TTITLE9=Bowleg's
TTITLE10=Doc 's Guitar
TTITLE11=Bayou Jubilee/Sally Was A Goodun
TTITLE12=Cosmic Cowboy, Part 1
TTITLE13=Win Or Lose
TTITLE14=Woody Woodpecker
TTITLE15=Visiting An Old Friend
TTITLE16=Will The Circle Be Unbroken
TTITLE17=Foggy Mountain Breakdown
EXTD=
EXTT0=
EXTT1=
EXTT2=
EXTT3=
EXTT4=
EXTT5=
EXTT6=
EXTT7=
EXTT8=
EXTT9=
EXTT10=
EXTT11=
EXTT12=
EXTT13=
EXTT14=
EXTT15=
EXTT16=
EXTT17=
PLAYORDER=
